<svg width="171" height="36" viewBox="0 0 171 36" fill="none" xmlns="http://www.w3.org/2000/svg">
  <!-- Cercle avec éléments graphiques (inspiré du logo original) -->
  <path fill-rule="evenodd" clip-rule="evenodd" d="M27.8333 18C27.8333 25.0877 22.0877 30.8333 15 30.8333C7.91234 30.8333 2.16666 25.0877 2.16666 18C2.16666 10.9123 7.91234 5.16666 15 5.16666C22.0877 5.16666 27.8333 10.9123 27.8333 18ZM30 18C30 26.2843 23.2843 33 15 33C6.71573 33 0 26.2843 0 18C0 9.71573 6.71573 3 15 3C23.2843 3 30 9.71573 30 18ZM23.2759 11.2759C23.2759 12.1329 22.5812 12.8276 21.7242 12.8276C20.8672 12.8276 20.1725 12.1329 20.1725 11.2759C20.1725 10.4189 20.8672 9.72418 21.7242 9.72418C22.5812 9.72418 23.2759 10.4189 23.2759 11.2759ZM10.4879 19.209C11.1556 21.7009 13.717 23.1797 16.2089 22.512C18.7008 21.8443 20.1796 19.2829 19.5119 16.791C18.8442 14.2991 16.2828 12.8203 13.7909 13.488C11.299 14.1557 9.82015 16.7171 10.4879 19.209ZM8.39503 19.7698C9.37244 23.4175 13.1219 25.5823 16.7696 24.6049C20.4174 23.6274 22.5821 19.878 21.6047 16.2302C20.6273 12.5825 16.8779 10.4177 13.2301 11.3952C9.58236 12.3726 7.41762 16.122 8.39503 19.7698Z" fill="url(#paint0_linear_120_1360)"/>
  
  <!-- Texte "HalaShare" -->
  <path d="M46.7369 28H43.1733V15.5025H43.6822C44.0002 14.936 44.4997 14.4553 45.1807 14.0605C45.8806 13.647 46.8507 13.4402 48.091 13.4402C49.3313 13.4402 50.3014 13.647 51.0013 14.0605C51.7012 14.4553 52.2007 14.936 52.4999 15.5025H53.0088V13.9757H56.515V28H52.9514V19.0369C52.9514 18.264 52.7535 17.6891 52.3576 17.3121C51.9618 16.9162 51.4056 16.7183 50.6893 16.7183C49.8788 16.7183 49.2463 16.9822 48.7918 17.51C48.3561 18.019 48.1382 18.7541 48.1382 19.7155V28H46.7369ZM60.2932 28V13.9757H63.7993V15.6721H64.3082C64.6287 15.1255 65.1282 14.6448 65.8068 14.2301C66.4854 13.7966 67.4562 13.5798 68.7191 13.5798C69.8501 13.5798 70.8963 13.8626 71.8576 14.428C72.8189 14.9747 73.5917 15.7852 74.1761 16.8597C74.7604 17.9341 75.0526 19.2348 75.0526 20.7616V21.214C75.0526 22.7409 74.7604 24.0415 74.1761 25.116C73.5917 26.1904 72.8189 27.0104 71.8576 27.5759C70.8963 28.1225 69.8501 28.3958 68.7191 28.3958C67.8709 28.3958 67.1546 28.2922 66.5702 28.0848C66.0047 27.8963 65.5429 27.6513 65.1848 27.3497C64.8455 27.0292 64.5721 26.7088 64.3648 26.3883H63.8559V28H60.2932ZM67.6447 25.2856C68.7379 25.2856 69.6521 24.9369 70.3873 24.2394C71.1224 23.5231 71.49 22.4864 71.49 21.1292V20.8465C71.49 19.4893 71.1224 18.4619 70.3873 17.7645C69.6521 17.0482 68.7379 16.69 67.6447 16.69C66.5514 16.69 65.6372 17.0482 64.902 17.7645C64.1669 18.4619 63.7993 19.4893 63.7993 20.8465V21.1292C63.7993 22.4864 64.1669 23.5231 64.902 24.2394C65.6372 24.9369 66.5514 25.2856 67.6447 25.2856ZM76.797 21.0444V20.592C76.797 19.1217 77.0892 17.8682 77.6736 16.8314C78.2579 15.7758 79.0307 14.9747 79.992 14.428C80.9722 13.8626 82.0372 13.5798 83.1869 13.5798C84.4687 13.5798 85.4395 13.806 86.0993 14.2584C86.759 14.7108 87.2398 15.182 87.5414 15.6721H88.0503V13.9757H91.5564V30.4882C91.5564 31.4495 91.2736 32.213 90.7081 32.7785C90.1426 33.3628 89.3886 33.655 88.4461 33.655H79.0581V30.5447H87.2011C87.729 30.5447 87.993 30.262 87.993 29.6965V26.049H87.4841C87.2966 26.3506 87.0327 26.6617 86.6924 26.9821C86.3531 27.2837 85.9007 27.5382 85.3352 27.7455C84.7697 27.9529 84.0534 28.0565 83.1869 28.0565C82.0372 28.0565 80.9722 27.7832 79.992 27.2366C79.0307 26.6711 78.2579 25.87 77.6736 24.8332C77.0892 23.7776 76.797 22.5147 76.797 21.0444ZM84.2045 24.9463C85.2978 24.9463 86.212 24.5976 86.9471 23.9001C87.6823 23.2027 88.0499 22.2225 88.0499 20.9596V20.6768C88.0499 19.395 87.6823 18.4148 86.9471 17.7362C86.2318 17.0388 85.3176 16.69 84.2045 16.69C83.1112 16.69 82.197 17.0388 81.4619 17.7362C80.7267 18.4148 80.3591 19.395 80.3591 20.6768V20.9596C80.3591 22.2225 80.7267 23.2027 81.4619 23.9001C82.197 24.5976 83.1112 24.9463 84.2045 24.9463Z" fill="white"/>
  
  <defs>
    <linearGradient id="paint0_linear_120_1360" x1="15" y1="3" x2="15" y2="33" gradientUnits="userSpaceOnUse">
      <stop stop-color="#877EFF"/>
      <stop offset="0.461458" stop-color="#685DFF"/>
      <stop offset="1" stop-color="#3121FF"/>
    </linearGradient>
  </defs>
</svg>


